<svg xmlns="http://www.w3.org/2000/svg" viewBox="0 0 423.3 415.98"><defs><style>.cls-1{isolation:isolate;}.cls-2{fill:#9bc048;}.cls-3{fill:#c76800;}.cls-4{fill:#fd9f5e;}.cls-5,.cls-6{fill:#893500;}.cls-11,.cls-5{opacity:0.25;}.cls-14,.cls-17,.cls-20,.cls-22,.cls-25,.cls-5,.cls-8{mix-blend-mode:multiply;}.cls-7{fill:#fddf03;}.cls-8{fill:#f8c94d;}.cls-11,.cls-18,.cls-9{fill:#fff;}.cls-18,.cls-9{opacity:0.2;}.cls-10{fill:#115c19;}.cls-11{mix-blend-mode:overlay;}.cls-12,.cls-14{fill:#c1d979;}.cls-13{fill:#178021;}.cls-14{opacity:0.5;}.cls-15{fill:#072900;}.cls-16{fill:#f56240;}.cls-17{fill:#f7d0c5;}.cls-18{mix-blend-mode:soft-light;}.cls-19{fill:#034a32;}.cls-20,.cls-22,.cls-23{opacity:0.3;}.cls-21{fill:#fdc53b;}.cls-22{fill:#fd8201;}.cls-23{fill:#fdf7db;}.cls-24{fill:#486c2c;}.cls-25{fill:#cce0b7;}.cls-26{fill:#f54d4d;}.cls-27{fill:#375a20;}.cls-28{fill:#eb911c;}.cls-29{fill:#e47400;}.cls-30{fill:#dbf3c9;}</style></defs><g class="cls-1"><g id="Layer_1" data-name="Layer 1"><path class="cls-2" d="M318.5,163.08c8.68,22.76,7.63,47.18,11,70.93,5,34.67-4.07,61.92,23.25,91,4.13,4.4,8.85,8.62,10.83,14.33s-.27,13.43-6.13,14.86c-4.93,1.19-9.87-2.64-12.07-7.21s-2.5-9.79-3.57-14.74c-7.29-33.57-36.6-38.85-65.37-37.26-53.11,2.94-132.77-8.48-165.42-55.42-16.23-23.33-32.54-50.24-41.66-77.19-2.79-8.27-19.65-96-7-96.67,49-2.43,98.87-4.76,146.19,8S301,117.28,318.5,163.08Z"/><path class="cls-2" d="M274.76,315.21c-46.43,6.47-95.68-3.58-135-29.53C102.07,260.77,75,222.77,60.66,180.18c-.53-1.57-3.28-.79-2.83.83,26,93.87,122.34,153.81,217.92,140.62C279.88,321.06,278.9,314.64,274.76,315.21Z"/><path class="cls-2" d="M346.65,184.42a157.3,157.3,0,0,0-13.12-33.76,154.62,154.62,0,0,0-49.42-55.41c-1.7-1.16-3.57,1.36-1.9,2.58A161.09,161.09,0,0,1,343,187.55c2.95,11.63,3.18,23.49,5.45,35.16a1.25,1.25,0,0,0,2.47,0C352.87,210.34,349.79,196.32,346.65,184.42Z"/><path class="cls-3" d="M72.11,222.08s-13.58,70.37,51.11,101q3.28,1.56,6.5,2.82c60.92,24.05,94.37-31.81,94.37-31.81Z"/><path class="cls-4" d="M78.38,258.4a96.4,96.4,0,0,0,10.21,15.15,124.71,124.71,0,0,0,12.49,13.3c9,8.22,19,15.45,30,20.45a100.33,100.33,0,0,0,53.5,7.32,99,99,0,0,0,17.8-4.09,93.88,93.88,0,0,1-17.72,4.62,100.23,100.23,0,0,1-18.32,1.14,96.61,96.61,0,0,1-35.69-8.05,100.33,100.33,0,0,1-15.92-9.19,119,119,0,0,1-14.21-11.62C91.71,279,83.84,269.36,78.38,258.4Z"/><path class="cls-4" d="M82.83,273.46a90.6,90.6,0,0,0,9,13.77,94.84,94.84,0,0,0,11.2,12A93.24,93.24,0,0,0,179.07,322a90.07,90.07,0,0,0,16-3.81,90.92,90.92,0,0,1-15.93,4.2,93.36,93.36,0,0,1-16.45,1.21,90,90,0,0,1-60.08-24,93,93,0,0,1-11.1-12.21A90.61,90.61,0,0,1,82.83,273.46Z"/><path class="cls-4" d="M75.38,247.36A80.5,80.5,0,0,0,86.74,263a146.21,146.21,0,0,0,13.86,13.52A162.36,162.36,0,0,0,116,288.26a112.29,112.29,0,0,0,16.83,9.47,120.17,120.17,0,0,0,18.33,6.11,148.12,148.12,0,0,0,19,3.5,119.07,119.07,0,0,0,19.34.75,69.31,69.31,0,0,0,19.05-3.2,70,70,0,0,1-19,3.6,120,120,0,0,1-19.42-.62A149.58,149.58,0,0,1,151,304.5a114.77,114.77,0,0,1-18.48-6.06,113,113,0,0,1-16.88-9.64,162.34,162.34,0,0,1-15.38-11.88,143.5,143.5,0,0,1-13.8-13.66A80.76,80.76,0,0,1,75.38,247.36Z"/><path class="cls-4" d="M86.92,270.08a64.94,64.94,0,0,0-1.11,10.21,13.25,13.25,0,0,1-.28-2.59,18.71,18.71,0,0,1,.11-2.59,20.32,20.32,0,0,1,.45-2.57A14.24,14.24,0,0,1,86.92,270.08Z"/><path class="cls-4" d="M94.32,277.3c-.25,2.38-.7,4.7-1,7a50,50,0,0,0-.35,7.05,18.28,18.28,0,0,1-.43-7.14A29.42,29.42,0,0,1,94.32,277.3Z"/><path class="cls-4" d="M101.51,283.75c0,2.81-.22,5.56-.33,8.32s-.2,5.52-.41,8.32a34.8,34.8,0,0,1,.74-16.64Z"/><path class="cls-4" d="M193,312a20.61,20.61,0,0,1-3,4.28,24.08,24.08,0,0,1-3.89,3.52,24.42,24.42,0,0,1-4.56,2.58,20.94,20.94,0,0,1-5,1.47,39,39,0,0,0,4.74-2,34.59,34.59,0,0,0,4.36-2.67,35.09,35.09,0,0,0,3.91-3.29A38.2,38.2,0,0,0,193,312Z"/><path class="cls-4" d="M179.2,311.59a30.06,30.06,0,0,1-9.48,9.63,33,33,0,0,1-12.53,5.08,56.76,56.76,0,0,0,11.95-6,51.78,51.78,0,0,0,5.32-4A44.19,44.19,0,0,0,179.2,311.59Z"/><path class="cls-4" d="M164.18,311.54a25.53,25.53,0,0,1-21.75,12.74,40.34,40.34,0,0,0,21.75-12.74Z"/><path class="cls-4" d="M147.32,307.53a15.27,15.27,0,0,1-3.68,9.2,13.7,13.7,0,0,1-3.95,3.19,10.61,10.61,0,0,1-4.83,1.3,18.88,18.88,0,0,0,4.3-2.18,18.41,18.41,0,0,0,3.48-3.17A26.53,26.53,0,0,0,147.32,307.53Z"/><path class="cls-4" d="M111.68,290.78a38.64,38.64,0,0,0-1.68,18,18.32,18.32,0,0,1,1.68-18Z"/><path class="cls-4" d="M121.44,298.22a39.43,39.43,0,0,0-1.72,9.6,22.55,22.55,0,0,0,.35,4.78,27.63,27.63,0,0,0,1.37,4.71,12.93,12.93,0,0,1-2.36-4.46,15.83,15.83,0,0,1-.67-5.07,18.48,18.48,0,0,1,.87-5A17.87,17.87,0,0,1,121.44,298.22Z"/><path class="cls-4" d="M133.77,303.69a37,37,0,0,1-.94,4.35c-.37,1.43-.82,2.84-1.29,4.24s-1,2.78-1.56,4.14a35.91,35.91,0,0,1-1.91,4,39.58,39.58,0,0,1,.94-4.35c.38-1.43.82-2.84,1.29-4.24s1-2.77,1.56-4.14A39.81,39.81,0,0,1,133.77,303.69Z"/><path class="cls-5" d="M86.65,215.23c-7.44.76-12.64,3.06-14.53,7.06h0a10.88,10.88,0,0,0-.79,6.31c-1.56,17.95-1,69.62,51.9,94.72q3.28,1.56,6.5,2.82C162.3,339,187,329,203,317,97,337.17,75.54,245.46,86.65,215.23Z"/><path class="cls-4" d="M72.12,222.08c-6.61,13.92,22.06,41.35,64,61.24s81.34,24.74,87.94,10.81-14.94-39.45-56.91-59.35S78.72,208.15,72.12,222.08Z"/><path class="cls-3" d="M78.16,224.94c-2.92,6.16,3,15.76,14.85,26.14,10.81,9.48,26.55,19.6,45,28.35s36.24,14.51,50.42,16.88c15.53,2.6,26.71,1.11,29.63-5,5.58-11.78-27.08-40.41-65.71-58.72S83.75,213.17,78.16,224.94Z"/><path class="cls-6" d="M93,251.08c10.81,9.48,26.55,19.6,45,28.35s36.24,14.51,50.42,16.88c-10.81-9.47-26.55-19.6-45-28.34S107.19,253.45,93,251.08Z"/><path class="cls-7" d="M257.86,276.22c4.62,2,9.66,3.44,14.68,3a26.42,26.42,0,0,0,14.6-6.64A57.54,57.54,0,0,0,297.74,260a7.08,7.08,0,0,0,3.62-2.53,4.28,4.28,0,0,0,.44-4.26,3.1,3.1,0,0,0-3.8-1.53c-1.78-1.76-3.64-3.51-5.59-5.17-6.07-5.18-12.93-9.49-20.66-10.7-12.72-2-26.29,6-30.64,18.17a4.86,4.86,0,0,0-3.75,4.36,4.54,4.54,0,0,0,3.49,4.3,30.59,30.59,0,0,0,2.5,3.26A41.16,41.16,0,0,0,257.86,276.22Z"/><path class="cls-8" d="M257.86,276.22c4.62,2,9.66,3.44,14.68,3a26.42,26.42,0,0,0,14.6-6.64A57.54,57.54,0,0,0,297.74,260a7.08,7.08,0,0,0,3.62-2.53,4.28,4.28,0,0,0,.44-4.26,3.1,3.1,0,0,0-3.8-1.53c-1.78-1.76-3.64-3.51-5.59-5.17a7.36,7.36,0,0,1,.57,2c.39,2.74-.86,5.45-2.36,7.77a33.77,33.77,0,0,1-47.27,9.63A41.16,41.16,0,0,0,257.86,276.22Z"/><path class="cls-9" d="M245.19,254.93c-1.69-1.89.13-6.28,4.07-9.81s8.51-4.85,10.2-3-.13,6.28-4.07,9.81S246.89,256.82,245.19,254.93Z"/><path class="cls-9" d="M261.76,241.76c-.25-1.36,1.84-2.89,4.67-3.41s5.33.15,5.58,1.51-1.84,2.89-4.67,3.41S262,243.11,261.76,241.76Z"/><path class="cls-8" d="M281.43,256.77c.77.83,2.33.61,3.47-.47s1.44-2.62.66-3.45-2.33-.61-3.47.48S280.65,256,281.43,256.77Z"/><path class="cls-8" d="M259.46,266.37c.78.83,2.33.61,3.48-.47s1.44-2.62.66-3.45-2.34-.61-3.48.48S258.68,265.55,259.46,266.37Z"/><path class="cls-8" d="M281.85,260.93a1.5,1.5,0,1,0,.33-1.72A1.27,1.27,0,0,0,281.85,260.93Z"/><path class="cls-8" d="M270.08,264.27a1.5,1.5,0,1,0,.33-1.72A1.28,1.28,0,0,0,270.08,264.27Z"/><path class="cls-8" d="M278.33,260.05c.19.21.58.15.87-.12a.63.63,0,0,0,.16-.86c-.19-.21-.58-.15-.87.12A.63.63,0,0,0,278.33,260.05Z"/><path class="cls-8" d="M271.59,266.09a.63.63,0,0,0,.87-.11.54.54,0,1,0-.71-.75C271.47,265.5,271.39,265.89,271.59,266.09Z"/><path class="cls-10" d="M139,256.18c3.09.73,6.39,1.59,9.35.46,3.89-1.47,6-5.88,9.71-7.7,5.32-2.59,11.7.93,17.54-.08a15.35,15.35,0,0,0,8.16-4.71,45.29,45.29,0,0,0,5.61-7.75c1.8-2.9,3.65-5.92,4.11-9.31.77-5.68-2.72-11.37-7.62-14.35a16.79,16.79,0,0,0-10.3-2.46,13.51,13.51,0,0,0-9.23,5c-1.82,2.36-2.92,5.53-5.61,6.83-2.08,1-4.71.62-6.59,2-1.52,1.07-2.17,3-3.5,4.31-2.66,2.61-7.16,2-10.3,4-2.77,1.76-3.94,5.17-4.8,8.34s-1.71,6.58-4.18,8.75c-.93.82-2,1.42-3,2.26a3.72,3.72,0,0,0-1.38,3.3c.56,2.72,3.24,1,4.78.68C134.19,255.13,136.72,255.63,139,256.18Z"/><path class="cls-11" d="M145.34,251.13c1.66-1.19,2.82-3,4.35-4.32,5.09-4.51,12.82-3.5,19.43-5.09a24.07,24.07,0,0,0,12.2-7.25c2.09-2.33,3.77-5.23,3.79-8.35s-2-6.39-5.11-7c-3.8-.7-7,2.59-10.11,4.86-3.68,2.67-6.86,7.22-11.41,7.46-9.87.51-14.38,7.65-20.11,13.35-1.74,1.72-4.85,5.24-2,7.51C138.54,254.06,143.39,252.53,145.34,251.13Z"/><path class="cls-12" d="M117.66,265.25c-.63.46-1.53-.45-1.46-1.23a3.2,3.2,0,0,1,1.29-1.9c4.33-3.83,9-7.2,13.43-11s8.48-8,11.2-13.11a29.3,29.3,0,0,1-4,8.08,84.1,84.1,0,0,0,11-7.58,28.32,28.32,0,0,0,8.32-10.35,14.29,14.29,0,0,1-3.72,8.1c8.89-4.71,18-8.81,27.18-12.94A260.28,260.28,0,0,1,157,238.24a29.42,29.42,0,0,1,14-.12,68.66,68.66,0,0,0-31.12,10.06,31.25,31.25,0,0,1,9.46,0C130.92,251.15,127,258.26,117.66,265.25Z"/><path class="cls-10" d="M141.6,271.54c2.19,2.65,4.48,5.54,7.77,6.5,4.32,1.27,9-1.19,13.4-.31,6.29,1.24,9.49,8.45,15.18,11.38a16.57,16.57,0,0,0,10.12,1.27,50.25,50.25,0,0,0,9.9-3c3.45-1.33,7-2.73,9.62-5.35,4.38-4.4,5.08-11.59,2.79-17.36a18.1,18.1,0,0,0-7.27-8.84,14.58,14.58,0,0,0-11.22-1.73c-3.11.85-6.13,2.86-9.29,2.22-2.45-.49-4.48-2.53-7-2.6-2-.06-3.83,1.18-5.82,1.44-4,.51-7.49-2.95-11.51-3.27-3.54-.29-6.77,1.88-9.58,4s-5.77,4.57-9.32,4.83c-1.34.1-2.69-.12-4,0a4,4,0,0,0-3.34,1.95c-1.3,2.71,2.11,3,3.67,3.7C138.11,267.47,140,269.55,141.6,271.54Z"/><path class="cls-11" d="M150.33,271.29c2.22.06,4.37-.72,6.58-.89,7.33-.56,13.35,5.36,20.08,8.3a26,26,0,0,0,15.26,1.7c3.32-.63,6.66-2,8.72-4.72s2.42-6.85.13-9.34c-2.82-3.07-7.72-2.32-11.89-2.4-4.93-.1-10.64,1.75-14.71-1-8.86-6-17.41-2.79-26.07-1.62-2.62.36-7.61,1.36-6.62,5.19C142.55,269.38,147.74,271.23,150.33,271.29Z"/><path class="cls-12" d="M117.24,265.4c-.84,0-1-1.38-.45-2a3.42,3.42,0,0,1,2.34-.8c6.24-.48,12.51-.31,18.75-.7s12.55-1.36,18.22-4a32.12,32.12,0,0,1-8.68,4.4,92,92,0,0,0,14.46.64,30.47,30.47,0,0,0,13.94-3.5,15.51,15.51,0,0,1-8.5,4.57c10.74,1.74,21.28,4.15,31.89,6.57a283,283,0,0,1-30.37-2.77,31.76,31.76,0,0,1,12.14,9,74.36,74.36,0,0,0-33.41-11.64,33.73,33.73,0,0,1,8.17,6.17C137.88,261.89,129.89,265.49,117.24,265.4Z"/><path class="cls-13" d="M144.56,261.62c3.27,1.78,6.75,3.75,10.45,3.39,4.86-.48,8.55-4.85,13.35-5.76,6.83-1.3,13,4.65,19.89,5.29a18,18,0,0,0,10.69-2.84,53.12,53.12,0,0,0,8.73-7.06c2.93-2.73,6-5.58,7.51-9.28,2.61-6.2.4-13.72-4.24-18.59A19.64,19.64,0,0,0,200,220.83a15.78,15.78,0,0,0-12,2.81c-2.79,2.12-5,5.37-8.45,6-2.66.5-5.53-.73-8.07.21-2.05.76-3.38,2.75-5.28,3.82-3.81,2.14-8.72.08-12.9,1.38-3.67,1.15-6,4.64-8,8s-4,6.93-7.42,8.64c-1.31.64-2.76,1-4,1.65a4.37,4.37,0,0,0-2.57,3.31c-.2,3.25,3.35,2.18,5.2,2.23C139.39,259,142.1,260.29,144.56,261.62Z"/><path class="cls-11" d="M153.23,257.83c2.26-.84,4.11-2.5,6.26-3.57,7.14-3.54,15.6,0,23.57.2a28.31,28.31,0,0,0,16-4.49c3.08-2,5.87-4.76,6.85-8.29s-.35-7.86-3.66-9.44c-4.09-2-8.71.79-12.94,2.4-5,1.91-10,6.09-15.21,5-11.34-2.45-18.64,4.26-26.87,8.95-2.5,1.42-7.1,4.46-4.55,7.91C144.64,259.06,150.6,258.82,153.23,257.83Z"/><path class="cls-12" d="M117.56,265.34c-.85.34-1.6-1-1.27-1.83a3.71,3.71,0,0,1,2-1.77c6.08-3,12.46-5.38,18.58-8.31S149,247,153.6,242a34.27,34.27,0,0,1-6.95,8,98.22,98.22,0,0,0,14.81-5.22,33.16,33.16,0,0,0,12.6-9.17,16.78,16.78,0,0,1-6.7,8c11.51-2.61,23.09-4.46,34.74-6.33a306.76,306.76,0,0,1-31.67,9.54A34.48,34.48,0,0,1,186.31,251,80.61,80.61,0,0,0,148,252.82a36.54,36.54,0,0,1,10.72,2.88C136.9,253.43,130.31,260.29,117.56,265.34Z"/><path class="cls-14" d="M209.83,263.46a155.28,155.28,0,0,1-21.85,1.9c-9.16.15-18.42-.52-27.19-3.14S143.7,254.91,137.73,248a35.93,35.93,0,0,1-3-4.1,12.29,12.29,0,0,1-3.29,5.65c-.93.82-2.05,1.42-3,2.26a4.15,4.15,0,0,0-1.41,2.64c-3.2,2.56-6.47,5-9.53,7.76l-.36.32a2.47,2.47,0,0,0-.84,1.06,1.31,1.31,0,0,0-.07.44.31.31,0,0,1,0,.08,1.4,1.4,0,0,0,.47,1.08l0,.05a.67.67,0,0,0,.52.25c5.44,0,10-.61,14.89-.6.78.88,2.55,1.17,3.56,1.61,2.42,1.06,4.27,3.14,5.91,5.13,2.19,2.64,4.48,5.53,7.77,6.5,4.32,1.27,9-1.19,13.4-.32,6.28,1.25,9.49,8.45,15.18,11.39a16.53,16.53,0,0,0,10.11,1.26,48.75,48.75,0,0,0,9.9-3c3.45-1.33,7-2.72,9.62-5.34,4.38-4.4,5.08-11.59,2.79-17.36C210.22,264.28,210,263.87,209.83,263.46Zm-81.52-6.91c1,.19,2.25-.42,3.23-.72a.3.3,0,0,0,0,.1l-5.27,2.27C126.91,257.64,127.6,257.09,128.31,256.55Zm11.09,4.25c-1.34.1-2.69-.12-4,0a4.46,4.46,0,0,0-2.94,1.36c-2.69.07-5.38.11-8.06.2,2.66-1.28,5.21-2.53,7.93-3.63,1.14.57,3,.14,4.24.17a14.15,14.15,0,0,1,5.27,1.38A9.66,9.66,0,0,1,139.4,260.8Z"/><path class="cls-15" d="M314.1,218.82l.56-.08a6,6,0,0,1,.23-2.07,1.92,1.92,0,0,1,1.42-1.32c0-.55,0-1.07.07-1.62a3,3,0,0,0-2.27,1.92A5.12,5.12,0,0,0,314.1,218.82Z"/><path class="cls-16" d="M310.68,224a10.19,10.19,0,0,0,2.33,5,17.19,17.19,0,0,0,6.05,4.71c.63.29,4.72,1.9,5.14.27a1.18,1.18,0,0,0,0-.28c0-.58-3.84-3.27-4.41-4.09a12.42,12.42,0,0,1-2.32-6.34c-.12-1.72,0-3.79-1.48-4.73a2.49,2.49,0,0,0-1.64-.37,3.67,3.67,0,0,0-1.93.82A5.65,5.65,0,0,0,310.68,224Z"/><path class="cls-17" d="M310.68,224a10.19,10.19,0,0,0,2.33,5,17.19,17.19,0,0,0,6.05,4.71c.63.29,4.72,1.9,5.14.27a11.55,11.55,0,0,1-9.81-15.81,3.67,3.67,0,0,0-1.93.82A5.65,5.65,0,0,0,310.68,224Z"/><path class="cls-18" d="M314.76,221.31c0,.91.36,1.66.87,1.68s.94-.71,1-1.62-.36-1.65-.87-1.67S314.79,220.41,314.76,221.31Z"/><path class="cls-15" d="M122.9,109.83l.79-.61a10.51,10.51,0,0,1-1.42-3.41,3.39,3.39,0,0,1,1-3.28L122,100a5.41,5.41,0,0,0-1.87,5A9.05,9.05,0,0,0,122.9,109.83Z"/><path class="cls-16" d="M122.1,120.9a17.86,17.86,0,0,0,7.93,5.71,30.31,30.31,0,0,0,13.48,2.09c1.23-.09,9-1.12,8.22-4a2,2,0,0,0-.19-.47c-.49-.89-8.78-1.76-10.39-2.52a22.23,22.23,0,0,1-9.08-7.86c-1.67-2.56-3.35-5.85-6.4-6.07a4.49,4.49,0,0,0-2.87.85,6.58,6.58,0,0,0-2.29,2.94A10.06,10.06,0,0,0,122.1,120.9Z"/><path class="cls-17" d="M122.1,120.9a17.86,17.86,0,0,0,7.93,5.71,30.31,30.31,0,0,0,13.48,2.09c1.23-.09,9-1.12,8.22-4A20.53,20.53,0,0,1,122.8,108.6a6.58,6.58,0,0,0-2.29,2.94A10.06,10.06,0,0,0,122.1,120.9Z"/><path class="cls-18" d="M126.08,113.14c.74,1.43,2,2.26,2.8,1.85s.85-1.92.11-3.36-2-2.26-2.8-1.84S125.34,111.7,126.08,113.14Z"/><path class="cls-19" d="M81.75,187a18.37,18.37,0,0,1,1.36-6.4A9.11,9.11,0,0,1,87.53,176a6.08,6.08,0,0,1,6.21.67c1.9,1.58,2.39,4.27,2.75,6.72a8.11,8.11,0,0,1,0,3.57A2.75,2.75,0,0,1,93.88,189a3.16,3.16,0,0,1-2.47-2.33c-.4-1.13-.5-2.37-1-3.46a2.77,2.77,0,0,0-2.79-1.83,2.51,2.51,0,0,0-1.79,2,7.45,7.45,0,0,0,.12,2.82q1.28,7.38,2.54,14.76a11.5,11.5,0,0,1,.25,3.09c-.15,1.47-1,3.09-2.67,3.22s-1.69-1.47-2-2.63a59.34,59.34,0,0,1-2.2-11.2A41.45,41.45,0,0,1,81.75,187Z"/><path class="cls-13" d="M68.12,201.43A7.68,7.68,0,0,1,70,197.68a5,5,0,0,1,2.82-1.31,4.92,4.92,0,0,1,.69-.82c1.87-1.81,5-1.72,7.27-.45a11.07,11.07,0,0,1,11.91.46l.45-.23c2.39-1.13,5.57-1,7.33,1a5.88,5.88,0,0,1,1.1,2,4,4,0,0,1,2.56,1.82,6.6,6.6,0,0,1,.69,2.47,44.29,44.29,0,0,1-3.88,24.66,12.79,12.79,0,0,1-3.75,5.08c-1.73,1.23-4.23,1.62-6,.4l-.07-.06a5.11,5.11,0,0,1-.28.46c-2.39,3.6-8.48,2-11-.5a2.66,2.66,0,0,1-1.57.4c-1.61-.13-2.62-1.75-3.35-3.19a82.54,82.54,0,0,1-6-13.65A27.81,27.81,0,0,1,68.12,201.43Z"/><g class="cls-20"><path class="cls-21" d="M80,194.73a6.82,6.82,0,0,1,.77.37l.52-.28A35.22,35.22,0,0,0,77.56,209,60.86,60.86,0,0,0,79,225.12c.61,2.86,1.34,5.69,2.11,8.51a7.35,7.35,0,0,1-1.28-1l-.2.11a98,98,0,0,1-3-14.89,46.66,46.66,0,0,1,.77-15.94A33.7,33.7,0,0,1,80,194.73Z"/><path class="cls-21" d="M91.57,194.9a11.35,11.35,0,0,1,1.12.66l.29-.15a58,58,0,0,1,2.55,15.36,58.68,58.68,0,0,1-2,17.09q-.72,2.64-1.69,5.21a3.94,3.94,0,0,1-.63-.36l-.07-.06a5.11,5.11,0,0,1-.28.46,4.81,4.81,0,0,1-.56.69,55.49,55.49,0,0,0,3.57-13.62,57.89,57.89,0,0,0-.25-16.83A57.2,57.2,0,0,0,91.57,194.9Z"/></g><path class="cls-22" d="M70.28,220c1.33,1.71,2.81,3.25,3.82,3.29,2.33.09,3.49-3.7,3.49-3.7s3.09,8.66,8.14,8.76,8.74-7.49,8.74-7.49-1,7.34,1.92,7.66c1.87.2,4.29-2.37,5.82-4.29-.38,1-.81,2-1.27,3a12.79,12.79,0,0,1-3.75,5.08c-1.73,1.23-4.23,1.62-6,.4l-.07-.06a5.11,5.11,0,0,1-.28.46c-2.39,3.6-8.48,2-11-.5a2.66,2.66,0,0,1-1.57.4c-1.61-.13-2.62-1.75-3.35-3.19C73.27,226.61,71.62,223.39,70.28,220Z"/><path class="cls-23" d="M103.37,215.3a5.87,5.87,0,0,1-1.63,3.74,1.86,1.86,0,0,1-1.87.42,1.76,1.76,0,0,1-.9-1.09,5.39,5.39,0,0,1-.19-1.45q-.18-6.39-.08-12.79a3.32,3.32,0,0,1,.53-2.15,2.21,2.21,0,0,1,3,0,5.41,5.41,0,0,1,1.73,3.63,41.12,41.12,0,0,1-.13,6.18C103.7,212.93,103.56,214.12,103.37,215.3Z"/><path class="cls-23" d="M97.47,199.39a1.56,1.56,0,0,0-.43.76.65.65,0,0,0,.1.65.76.76,0,0,0,.58.14,2.6,2.6,0,0,0,.78-.13c.46-.17,1-.81.57-1.28A1.1,1.1,0,0,0,97.47,199.39Z"/><path class="cls-23" d="M87.57,195.06a4.59,4.59,0,0,0-3.82,5c.4,2.83,3.39,4.74,3.86,7.57.12.7.07,1.42.22,2.12a2,2,0,0,0,1.29,1.57,1.73,1.73,0,0,0,1.6-.56c1.53-1.6,1.7-4,1.83-6.11C92.76,201.18,92.66,194.43,87.57,195.06Z"/><path class="cls-15" d="M100.74,75.61c-.35-.39-.71-.77-1.07-1.16a16.78,16.78,0,0,0,3.1-5,5.45,5.45,0,0,0-.81-5.42c.91-1.27,1.77-2.45,2.68-3.71a8.57,8.57,0,0,1,1.67,8.23A14.42,14.42,0,0,1,100.74,75.61Z"/><path class="cls-24" d="M99.18,93.17c-3.74,3.69-8.79,5.77-13.9,6.93a48.2,48.2,0,0,1-21.67-.17c-1.91-.45-13.8-4.06-11.86-8.42a3.39,3.39,0,0,1,.42-.68c1-1.28,14.22-.52,16.93-1.31a35.45,35.45,0,0,0,16.26-10c3.27-3.6,6.73-8.32,11.58-7.89a7.05,7.05,0,0,1,4.27,2.07,10.27,10.27,0,0,1,2.84,5.2C105.16,84,102.92,89.5,99.18,93.17Z"/><path class="cls-25" d="M99.18,93.17c-3.74,3.69-8.79,5.77-13.9,6.93a48.2,48.2,0,0,1-21.67-.17c-1.91-.45-13.8-4.06-11.86-8.42a33.37,33.37,0,0,0,30.16,3.28,33.4,33.4,0,0,0,19.3-21.08,10.27,10.27,0,0,1,2.84,5.2C105.16,84,102.92,89.5,99.18,93.17Z"/><path class="cls-18" d="M94.92,80c-1.53,2.06-3.71,3-4.86,2.18s-.85-3.22.68-5.28,3.71-3,4.86-2.18S96.45,77.92,94.92,80Z"/><path class="cls-26" d="M53.8,136.49c-5.17,10.29-1.24,24.09,9.46,29.47S86.79,167.34,92,157s.73-23-10-28.35S59,126.2,53.8,136.49Z"/><path class="cls-17" d="M53.8,136.49c-5.17,10.29-1.24,24.09,9.46,29.47a21.83,21.83,0,0,0,20.5-.34,22.08,22.08,0,0,1-12.83-2.2C60.23,158,56.3,144.24,61.47,134a18.6,18.6,0,0,1,7.2-7.77A18.68,18.68,0,0,0,53.8,136.49Z"/><path class="cls-9" d="M88.82,142.67c1.62.08,2.79,2.89,2.62,6.26s-1.63,6-3.25,6-2.8-2.89-2.62-6.26S87.2,142.58,88.82,142.67Z"/><path class="cls-9" d="M87.33,156.12c.73.5.48,2.13-.55,3.65s-2.48,2.35-3.2,1.85-.48-2.13.55-3.65S86.6,155.62,87.33,156.12Z"/><path class="cls-27" d="M83.21,129.85A23.39,23.39,0,0,1,94,136.35a32.37,32.37,0,0,0-11.37-5.16,46.55,46.55,0,0,1,7.42,5.23A16.37,16.37,0,0,1,95,144a33,33,0,0,0-12-8.79,12.1,12.1,0,0,1,.37,7.36,15.8,15.8,0,0,0-4.59-8.85,17.65,17.65,0,0,0-8.29,2.58,10.15,10.15,0,0,1,5-4.42,34.4,34.4,0,0,0-14.81-5.14,22.92,22.92,0,0,1,16.54,2.48,10.46,10.46,0,0,0-5.4-4.84,16.52,16.52,0,0,1,7.91,4.34,11.3,11.3,0,0,1,5.67-1.07A4.79,4.79,0,0,0,83.21,129.85Z"/><path class="cls-19" d="M336.93,290.42a25,25,0,0,1,8.88.17,12.34,12.34,0,0,1,7.36,4.68,8.22,8.22,0,0,1,.72,8.44c-1.62,3-5.08,4.29-8.26,5.4a10.89,10.89,0,0,1-4.75.9,3.74,3.74,0,0,1-3.45-2.92c-.2-1.62,1.07-3.07,2.47-3.89s3-1.27,4.36-2.21,2.34-2.67,1.72-4.18a3.4,3.4,0,0,0-3.12-1.88,10,10,0,0,0-3.73.89l-19,7.19a15.63,15.63,0,0,1-4.06,1.13c-2,.18-4.37-.59-5-2.73s1.52-2.63,3-3.38a80.63,80.63,0,0,1,14.36-5.83A57.31,57.31,0,0,1,336.93,290.42Z"/><path class="cls-28" d="M314.21,276a10.42,10.42,0,0,1,5.48,1.55,6.78,6.78,0,0,1,2.48,3.41,6.83,6.83,0,0,1,1.27.7c2.9,2,3.57,6.22,2.48,9.59a15.16,15.16,0,0,1,2.76,4.61,15.47,15.47,0,0,1-.31,11.38l.42.53c2.12,2.9,2.77,7.17.58,10a8.11,8.11,0,0,1-2.33,2,5.49,5.49,0,0,1-1.77,3.88,9.08,9.08,0,0,1-3.11,1.55,60.08,60.08,0,0,1-33.87,1.18c-2.8-.72-5.64-1.7-7.73-3.69s-3.25-5.21-2.08-7.85l.06-.11-.68-.25c-5.41-2.26-4.91-10.78-2.18-14.81a3.64,3.64,0,0,1-.93-2c-.24-2.17,1.66-3.93,3.38-5.28,5.31-4.18,10.67-8.38,16.64-11.54S307.46,275.59,314.21,276Z"/><path class="cls-29" d="M326.21,290.09a11,11,0,0,1-.29,1.13c.17.2.34.4.5.61a47.59,47.59,0,0,0-19.83-1.32,81.81,81.81,0,0,0-21.14,6.11c-3.65,1.54-7.23,3.24-10.79,5a10.12,10.12,0,0,1,1-2l-.19-.24a134.06,134.06,0,0,1,19.06-7.86A63.49,63.49,0,0,1,316,288.48,45.27,45.27,0,0,1,326.21,290.09Z"/><path class="cls-29" d="M329,305.55a16.44,16.44,0,0,1-.6,1.66c.1.11.18.23.27.34a79.56,79.56,0,0,1-43.09,9.12c-2.48-.18-4.94-.49-7.38-.91a6.46,6.46,0,0,1,.31-.94l.06-.11-.68-.25a6.32,6.32,0,0,1-1.06-.57,74.38,74.38,0,0,0,19.06,1.24,78.19,78.19,0,0,0,22.37-4.66A77.11,77.11,0,0,0,329,305.55Z"/><path class="cls-29" d="M290,283.65c-1.94,2.22-3.6,4.58-3.4,6,.48,3.11,5.84,3.68,5.84,3.68s-10.75,6.36-9.58,13.11,12.23,9.72,12.23,9.72-10.05.49-9.71,4.53c.21,2.54,4.26,5.11,7.22,6.66-1.44-.26-2.87-.57-4.28-.94-2.8-.72-5.64-1.7-7.73-3.69s-3.25-5.21-2.08-7.85l.06-.11-.68-.25c-5.41-2.26-4.91-10.78-2.18-14.81a3.64,3.64,0,0,1-.93-2c-.24-2.17,1.66-3.93,3.38-5.28C282,289.34,285.86,286.3,290,283.65Z"/><path class="cls-23" d="M304.81,326.53c-1.88.06-3.93,0-5.4-1.21a2.52,2.52,0,0,1-1-2.38,2.38,2.38,0,0,1,1.22-1.49,6.9,6.9,0,0,1,1.88-.61q8.47-1.9,17-3.42a4.55,4.55,0,0,1,3,.15,3,3,0,0,1,.84,4,7.32,7.32,0,0,1-4.39,3.23,56.63,56.63,0,0,1-8.26,1.43C308.06,326.36,306.44,326.47,304.81,326.53Z"/><path class="cls-23" d="M324.5,314.56a2,2,0,0,0-1.12-.37.92.92,0,0,0-.85.29,1,1,0,0,0,0,.81,3.6,3.6,0,0,0,.37,1c.35.57,1.34,1.12,1.85.44A1.51,1.51,0,0,0,324.5,314.56Z"/><path class="cls-23" d="M327.71,300.26a6.22,6.22,0,0,0-7.62-3.81c-3.68,1.26-5.45,5.74-9.09,7.1-.91.33-1.89.45-2.78.84a2.7,2.7,0,0,0-1.76,2.11,2.36,2.36,0,0,0,1.16,2c2.53,1.62,5.79,1.23,8.61.86C320.9,308.75,329.87,306.88,327.71,300.26Z"/><path class="cls-30" d="M187.94,150.13c-1.41-.06-2.84-1.72-4.27-5a43.23,43.23,0,0,1-2.45-7.32q-2,.3-6.5.6c-2.83.19-5,.43-6.51.69q-1.23,3-4.3,8.9a3.67,3.67,0,0,1-3.28,1.94,4,4,0,0,1-2.66-1,3.22,3.22,0,0,1-1.18-2.57q0-1.37,3.92-9.3a3.15,3.15,0,0,1-.32-1.56q.11-1.29,2.61-2,3.81-6.61,8.49-13.71,6.72-10.2,8.28-10.19,3,0,3.95,3.57.54,2.88,1.7,8.63,1.64,7.74,4,17.72a35.91,35.91,0,0,0,1.37,3.55,10,10,0,0,1,1,3.46,3.36,3.36,0,0,1-1.17,2.61A3.67,3.67,0,0,1,187.94,150.13Zm-10-27.58q-2.1,3.6-5.78,9.81a25.5,25.5,0,0,1,3.76-.43c2-.13,3.27-.23,3.79-.3Q179,128.14,177.92,122.55Z"/><path class="cls-30" d="M222.62,148.3a44.08,44.08,0,0,1-9.81,2.5,62.7,62.7,0,0,1-10,1q-6.6,0-6.59-5.78,0,.45.54-8.52.69-11.67.7-26a3.58,3.58,0,0,1,1.06-2.61,3.63,3.63,0,0,1,2.67-1.07,3.67,3.67,0,0,1,2.69,1.07,3.56,3.56,0,0,1,1.08,2.61q0,14.33-.73,26.4c-.16,1.43-.33,3.63-.51,6.58q6.38-.1,16.34-3.11a4,4,0,0,1,1.19-.19,3.43,3.43,0,0,1,2.74,1.23,3.71,3.71,0,0,1,.94,2.48A3.5,3.5,0,0,1,222.62,148.3Z"/><path class="cls-30" d="M257.38,116.15q-1.38,2.82-5.51,12.2-3.45,7.85-5.86,12.31-4.2,7.74-4.49,8.2a4.47,4.47,0,0,1-3.66,2.34,3.85,3.85,0,0,1-2.6-1,3.36,3.36,0,0,1-1.24-2.66q0-1.32,5.62-11.07-2.07-3-5.94-9.06Q230.79,123,225.17,114a3.8,3.8,0,0,1-.53-1.91,3.36,3.36,0,0,1,1.21-2.63,3.82,3.82,0,0,1,2.63-1,4.15,4.15,0,0,1,3.23,1.8l2,3.23q.19.32,4.63,7.85a73.51,73.51,0,0,0,4.94,7.61q2-4.12,5.89-12.45c.54-1.24,1.34-3.11,2.42-5.62a3.56,3.56,0,0,1,3.49-2.42,3.91,3.91,0,0,1,2.61,1,3.3,3.3,0,0,1,1.24,2.63A13.7,13.7,0,0,1,257.38,116.15Z"/><path class="cls-30" d="M137.24,192.24A19.86,19.86,0,0,1,131,203.19a16.68,16.68,0,0,1-11.24,4.13q-6.1,0-9.16-3.23t-3.06-9.67a28.25,28.25,0,0,1,2.9-12,28.78,28.78,0,0,1,7.43-10,10.47,10.47,0,0,1,6.85-2.69,17,17,0,0,1,6.06,1.61q4.54,1.91,4.54,4.06a3.26,3.26,0,0,1-3.26,3.19,9.27,9.27,0,0,1-3-1.29,9,9,0,0,0-4.3-1.3q-2.07,0-5.58,4.45a22.13,22.13,0,0,0-5.12,14q0,3.83,1.12,5.21t4.62,1.44a10,10,0,0,0,6.17-2,12.3,12.3,0,0,0,4.18-6.15,27.7,27.7,0,0,0-9.27,2.18,3.53,3.53,0,0,1-1.43.32,3,3,0,0,1-2.36-1.06,3.09,3.09,0,0,1-.85-2.13q0-3.51,8.31-4.92a67.19,67.19,0,0,1,10.92-.78,3.19,3.19,0,0,1,2.31.9,3.11,3.11,0,0,1-.45,4.8Z"/><path class="cls-30" d="M167.25,206.42c-1.21,0-2.43-1.47-3.65-4.27a36.43,36.43,0,0,1-2.09-6.24c-1.13.17-3,.34-5.56.5a55.75,55.75,0,0,0-5.55.6c-.71,1.68-1.93,4.22-3.68,7.6a3.12,3.12,0,0,1-2.8,1.65,3.37,3.37,0,0,1-2.27-.86,2.75,2.75,0,0,1-1-2.19q0-1.17,3.35-7.94a2.8,2.8,0,0,1-.27-1.33c.06-.74.8-1.31,2.22-1.73q3.27-5.64,7.26-11.7,5.73-8.7,7.07-8.7c1.68,0,2.81,1,3.37,3.05.31,1.64.79,4.09,1.45,7.37q1.4,6.61,3.42,15.13.17.63,1.17,3a8.65,8.65,0,0,1,.83,3,2.88,2.88,0,0,1-1,2.22A3.11,3.11,0,0,1,167.25,206.42Zm-8.57-23.55q-1.78,3.07-4.93,8.38a23,23,0,0,1,3.21-.37c1.72-.1,2.8-.19,3.24-.25C159.83,188.64,159.33,186.05,158.68,182.87Z"/><path class="cls-30" d="M198.79,206a3.24,3.24,0,0,1-2.27-1A38.61,38.61,0,0,0,181.23,196c.17,4.45.25,6.93.25,7.42a3,3,0,0,1-.92,2.21,3.35,3.35,0,0,1-4.59,0,3,3,0,0,1-.92-2.21c0-1.15,0-2.87,0-5.16s0-4,0-5.15l.05-18.53a4.43,4.43,0,0,1,.9-2.7,3.44,3.44,0,0,1,3.23-1.41l5.72.44a16.2,16.2,0,0,1,5.46,1.54q9.81,4.94,9.8,12.23a7.76,7.76,0,0,1-2.05,5.32,15.68,15.68,0,0,1-6.17,3.89,34.13,34.13,0,0,1,9.16,6.93,3,3,0,0,1,.81,2,3,3,0,0,1-1,2.22A3.19,3.19,0,0,1,198.79,206Zm-14.72-28.88-2.68-.18v12.19l1,0c3.75,0,6.52-.47,8.33-1.4a8.57,8.57,0,0,0,2.15-1.58c.65-.66,1-1.16,1-1.5,0-1.71-1.08-3.36-3.26-5A13.25,13.25,0,0,0,184.07,177.13Z"/><path class="cls-30" d="M209.51,206a3.12,3.12,0,0,1-2.27-.93,2.92,2.92,0,0,1-.92-2.19q0-2.29.21-6.88c.15-3.07.22-5.36.22-6.89q0-2.55-.1-7.65t-.1-7.64a3.64,3.64,0,0,1,1.21-2.51,3.58,3.58,0,0,1,2.6-1.25,14,14,0,0,1,3.81,1.42c2.37,1.13,3.78,1.77,4.22,1.9a29.48,29.48,0,0,1,11.48,6.75q5.67,5.44,5.67,12a16.31,16.31,0,0,1-7.3,13.41Q224.43,208,217.52,208a17.69,17.69,0,0,1-3.86-.49A12.88,12.88,0,0,1,209.51,206Zm12.9-23.59a75.41,75.41,0,0,0-9.55-4.41v22.72a6.63,6.63,0,0,0,2,.86,10.42,10.42,0,0,0,2.59.29q5,0,7.11-1.38a9.36,9.36,0,0,0,3.25-3.55,9.84,9.84,0,0,0,1.21-4.69Q229.07,186.52,222.41,182.37Z"/><path class="cls-30" d="M262.42,176.31a3.65,3.65,0,0,1-1-.14,26.07,26.07,0,0,0-10.93-.74,42,42,0,0,0-4.2.83q0,3.06-.21,9.07c.86-.06,3.85-.35,9-.85,2.92-.29,4.77-.44,5.55-.44a3.38,3.38,0,0,1,2.32.86,2.94,2.94,0,0,1,1,2.29q0,2.73-2.91,3.1c-1.23.09-3,.24-5.49.45-2.17.25-5.45.55-9.82.9-.11,1.94-.16,3.51-.16,4.71,0,3,.17,4.7.53,5.11.16.2,1.13.3,2.89.3.95,0,2.38,0,4.29-.07s3.34-.06,4.29-.06a10.15,10.15,0,0,0,1.36-.14,10,10,0,0,1,1.33-.14,3.48,3.48,0,0,1,2.27.76,2.85,2.85,0,0,1,1.08,2.38,2.89,2.89,0,0,1-2.69,3.08,64.1,64.1,0,0,1-9.52.44c-5,0-8.24-.68-9.76-2q-2.51-2.24-2.5-9.64c0-2.06.15-5.13.45-9.24s.45-7.18.45-9.22a18.52,18.52,0,0,0-.23-2.38,16.74,16.74,0,0,1-.23-2.37q0-3.49,3.21-3.49a3.29,3.29,0,0,1,1.86.57,51.23,51.23,0,0,1,5.06-1,33.33,33.33,0,0,1,4.53-.33,26.64,26.64,0,0,1,9.26,1.33,2.94,2.94,0,0,1,2.11,2.92,3.07,3.07,0,0,1-.83,2.11A3,3,0,0,1,262.42,176.31Z"/><path class="cls-30" d="M302.61,200.09a26.16,26.16,0,0,1-.39,3.62,3.09,3.09,0,0,1-3.35,3,5.77,5.77,0,0,1-3.62-1.82q-8.85-8-19.95-22.33-.14,6-.14,7.32c0,1.21,0,3,.08,5.46s.08,4.26.08,5.47q0,6.76-3.31,6.77a3.58,3.58,0,0,1-2.68-1,3,3,0,0,1-.9-2.22c0-.61.05-1.54.15-2.78s.15-2.17.15-2.78c0-.9,0-2.25.09-4.06s.1-3.16.1-4.06,0-2.42-.07-4.36-.07-3.4-.07-4.37-.09-2.28-.28-4.11-.27-3.19-.27-4.1a3.25,3.25,0,0,1,1.18-2.46,3.9,3.9,0,0,1,2.7-1.08q1.69,0,3.76,2.94a151,151,0,0,0,20.57,24.26c0-.49,0-1.65,0-3.49q0-11.31-.23-15.26c0-.45-.13-1.27-.3-2.48a19.45,19.45,0,0,1-.23-2.53q0-3.16,3.36-3.16,3.74,0,3.74,11.54c0,.17,0,1.38-.05,3.63Q302.62,197.24,302.61,200.09Z"/></g></g></svg>